<svg xmlns="http://www.w3.org/2000/svg" xmlns:xlink="http://www.w3.org/1999/xlink" width="96" height="96" viewBox="0 0 96 96">
  <defs>
    <clipPath id="clip-path">
      <rect id="Rectangle_24" data-name="Rectangle 24" width="96" height="96" transform="translate(1384 2037)" stroke="#707070" stroke-width="1"/>
    </clipPath>
  </defs>
  <g id="Mask_Group_3" data-name="Mask Group 3" transform="translate(-1384 -2037)" clip-path="url(#clip-path)">
    <g id="Layer_2" data-name="Layer 2" transform="translate(1384 2037)">
      <g id="invisible_box" data-name="invisible box">
        <rect id="Rectangle_26" data-name="Rectangle 26" width="96" height="96" fill="none"/>
      </g>
      <g id="Q3_icons" data-name="Q3 icons">
        <g id="Group_18" data-name="Group 18">
          <path id="Path_15" data-name="Path 15" d="M76,4H20a4,4,0,0,0-4,4V88a4,4,0,0,0,4,4H76a4,4,0,0,0,4-4V8A4,4,0,0,0,76,4ZM72,84H24V12H72Z"/>
          <rect id="Rectangle_27" data-name="Rectangle 27" width="32" height="8" transform="translate(32 20)"/>
          <rect id="Rectangle_28" data-name="Rectangle 28" width="32" height="8" transform="translate(32 32)"/>
          <rect id="Rectangle_29" data-name="Rectangle 29" width="32" height="8" transform="translate(32 44)"/>
          <circle id="Ellipse_4" data-name="Ellipse 4" cx="6" cy="6" r="6" transform="translate(42 64)"/>
        </g>
      </g>
    </g>
  </g>
</svg>
