<svg xmlns="http://www.w3.org/2000/svg" xmlns:xlink="http://www.w3.org/1999/xlink" width="96" height="96" viewBox="0 0 96 96">
  <defs>
    <clipPath id="clip-path">
      <rect id="Rectangle_30" data-name="Rectangle 30" width="96" height="96" transform="translate(448 2037)" fill="#fff" stroke="#707070" stroke-width="1"/>
    </clipPath>
  </defs>
  <g id="Mask_Group_4" data-name="Mask Group 4" transform="translate(-448 -2037)" clip-path="url(#clip-path)">
    <g id="Layer_2" data-name="Layer 2" transform="translate(448 2037)">
      <g id="invisible_box" data-name="invisible box">
        <rect id="Rectangle_31" data-name="Rectangle 31" width="96" height="96" fill="none"/>
      </g>
      <g id="icons_Q2" data-name="icons Q2">
        <path id="Path_16" data-name="Path 16" d="M92,18C92,4.4,52.6,4,48,4S4,4.4,4,18V78C4,91.6,43.4,92,48,92s44-.4,44-14V18.6h0ZM84,37.6C82,40,68.8,44,48,44s-34-4-36-6.4V26.8c11.8,5,32.8,5.2,36,5.2s24.2-.2,36-5.2Zm0,20C82,60,68.8,64,48,64s-34-4-36-6.4V46.8c11.8,5,32.8,5.2,36,5.2s24.2-.2,36-5.2ZM48,12c19.6,0,32.6,3.6,35.6,6-3,2.4-16,6-35.6,6s-32.6-3.6-35.6-6C15.4,15.6,28.4,12,48,12Zm0,72c-20.8,0-34-4-36-6.4V66.8c11.8,5,32.8,5.2,36,5.2s24.2-.2,36-5.2V77.6C82,80,68.8,84,48,84Z"/>
      </g>
    </g>
  </g>
</svg>
