<svg xmlns="http://www.w3.org/2000/svg" xmlns:xlink="http://www.w3.org/1999/xlink" width="96" height="96" viewBox="0 0 96 96">
  <defs>
    <clipPath id="clip-path">
      <rect id="Rectangle_23" data-name="Rectangle 23" width="96" height="96" transform="translate(912 2037)"/>
    </clipPath>
  </defs>
  <g id="Mask_Group_2" data-name="Mask Group 2" transform="translate(-912 -2037)" clip-path="url(#clip-path)">
    <g id="Layer_2" data-name="Layer 2" transform="translate(912 2037)">
      <g id="invisible_box" data-name="invisible box">
        <rect id="Rectangle_25" data-name="Rectangle 25" width="96" height="96" fill="none"/>
      </g>
      <g id="icons_Q2" data-name="icons Q2">
        <circle id="Ellipse_1" data-name="Ellipse 1" cx="4" cy="4" r="4" transform="translate(16 24)"/>
        <circle id="Ellipse_2" data-name="Ellipse 2" cx="4" cy="4" r="4" transform="translate(28 24)"/>
        <circle id="Ellipse_3" data-name="Ellipse 3" cx="4" cy="4" r="4" transform="translate(40 24)"/>
        <path id="Path_12" data-name="Path 12" d="M26,70a4,4,0,0,1-2.6-7L34,54,23.4,45a4,4,0,0,1,5.2-6l14,12a4,4,0,0,1,0,6l-14,12A3.8,3.8,0,0,1,26,70Z"/>
        <path id="Path_13" data-name="Path 13" d="M72,66H52a4,4,0,0,1,0-8H72a4,4,0,0,1,0,8Z"/>
        <path id="Path_14" data-name="Path 14" d="M88,12H8a4,4,0,0,0-4,4V80a4,4,0,0,0,4,4H8a4.2,4.2,0,0,0,4-4.6V20H84V76H32a4,4,0,0,0-4,4.6A4.2,4.2,0,0,0,32.2,84H88a4,4,0,0,0,4-4V16A4,4,0,0,0,88,12Z"/>
      </g>
    </g>
  </g>
</svg>
