<svg xmlns="http://www.w3.org/2000/svg" width="40" height="40" viewBox="0 0 40 40">
  <path id="github" d="M20,0A20,20,0,1,0,40,20,20,20,0,0,0,20,0Zm0,2.178A17.822,17.822,0,1,1,2.178,20,17.822,17.822,0,0,1,20,2.178ZM11.154,7.4a7.18,7.18,0,0,0-.23,4.476,6.682,6.682,0,0,0-1.279,2.1c-.812,2.568-.614,5.848,1.164,7.832a7,7,0,0,0,2.539,1.69,13.445,13.445,0,0,0,4.113.844c-1.126.526-1.918.847-2.194,2.009a3.209,3.209,0,0,1-3.887-.273c-.874-.638-1.27-1.772-2.239-2.192a1.167,1.167,0,0,0-.571-.137.83.83,0,0,0-.754.273c-.091.091-.084.189.022.3A7.2,7.2,0,0,1,9.692,26.3a5.789,5.789,0,0,0,1.233,1.8,4.732,4.732,0,0,0,4.16.708c-.162.978.276,2.5-.047,3.379a1.929,1.929,0,0,1-.524.64c-.2.2-.836.448-.708.752.061.137.274.221.64.251a2.655,2.655,0,0,0,2.08-.981,1.467,1.467,0,0,0,.251-.891V28.22a1.262,1.262,0,0,1,.273-.913,1.392,1.392,0,0,1,.6-.367v4.931a4.6,4.6,0,0,1-.114,1.1,3.544,3.544,0,0,1-.206.64c-.14.234-.408.451-.412.73,0,.091.054.143.161.159a2.533,2.533,0,0,0,2.056-1.164,4,4,0,0,0,.388-1.733V26.758h1.006V31.6a3.816,3.816,0,0,0,.412,1.733,1.958,1.958,0,0,0,1.372,1.052,2.143,2.143,0,0,0,.683.112c.122-.016.177-.068.161-.159a2.175,2.175,0,0,0-.388-.73,3.128,3.128,0,0,1-.32-1.736V26.941a1.539,1.539,0,0,1,.618.367,1.2,1.2,0,0,1,.3.913v3.742a1.467,1.467,0,0,0,.251.891,2.625,2.625,0,0,0,2.08.981c.366-.03.579-.114.64-.251s.016-.25-.137-.342a5.72,5.72,0,0,1-.571-.41,1.891,1.891,0,0,1-.524-.64c-.137-1.57,0-3.253-.114-4.841a3.274,3.274,0,0,0-2.217-2.967,11.9,11.9,0,0,0,3.909-.869c3.052-1.483,3.9-3.776,3.909-6.848a7.119,7.119,0,0,0-1.921-5.024,6.142,6.142,0,0,0,.161-2.19A7.527,7.527,0,0,0,28.343,7.4a6.941,6.941,0,0,0-2.834.683,10.222,10.222,0,0,0-1.646,1.006,17.136,17.136,0,0,0-8.181.09A8,8,0,0,0,11.156,7.4Z" fill="#fff"/>
</svg>
